<svg xmlns="http://www.w3.org/2000/svg" viewBox="0 0 512 512" width="512" height="512">
  <defs>
    <linearGradient id="vkuGrad" x1="0%" y1="0%" x2="100%" y2="100%">
      <stop offset="0%" stop-color="#0284c7" />
      <stop offset="100%" stop-color="#0369a1" />
    </linearGradient>
    <filter id="shadow" x="-10%" y="-10%" width="120%" height="120%">
      <feDropShadow dx="0" dy="12" stdDeviation="16" flood-color="#0284c7" flood-opacity="0.35"/>
    </filter>
  </defs>

  <!-- Background Rounded Rect -->
  <rect width="512" height="512" rx="112" fill="url(#vkuGrad)" />

  <!-- Inner Card -->
  <rect x="76" y="96" width="360" height="340" rx="36" fill="#ffffff" filter="url(#shadow)" />

  <!-- Clipboard Top Clip -->
  <rect x="196" y="72" width="120" height="48" rx="16" fill="#0f172a" />
  <rect x="226" y="86" width="60" height="20" rx="10" fill="#38bdf8" />

  <!-- Checklist lines -->
  <circle cx="140" cy="180" r="16" fill="#10b981" />
  <path d="M133 180 L138 185 L148 174" stroke="#ffffff" stroke-width="4" stroke-linecap="round" stroke-linejoin="round" fill="none"/>
  <rect x="176" y="170" width="200" height="18" rx="9" fill="#e2e8f0" />

  <circle cx="140" cy="240" r="16" fill="#10b981" />
  <path d="M133 240 L138 245 L148 234" stroke="#ffffff" stroke-width="4" stroke-linecap="round" stroke-linejoin="round" fill="none"/>
  <rect x="176" y="230" width="160" height="18" rx="9" fill="#e2e8f0" />

  <circle cx="140" cy="300" r="16" fill="#0284c7" />
  <rect x="176" y="290" width="180" height="18" rx="9" fill="#e2e8f0" />

  <!-- Camera / Offline badge at bottom right -->
  <circle cx="370" cy="380" r="54" fill="#0284c7" stroke="#ffffff" stroke-width="8" />
  <!-- Camera Icon -->
  <path d="M352 370 h36 l6 10 h12 a6 6 0 0 1 6 6 v24 a6 6 0 0 1 -6 6 h-60 a6 6 0 0 1 -6 -6 v-24 a6 6 0 0 1 6 -6 h6 z" fill="#ffffff" />
  <circle cx="370" cy="390" r="10" fill="#0284c7" stroke="#ffffff" stroke-width="3" />

  <!-- Text VKU -->
  <text x="256" y="480" text-anchor="middle" font-family="-apple-system, BlinkMacSystemFont, 'Segoe UI', Roboto, sans-serif" font-size="34" font-weight="900" fill="#ffffff" letter-spacing="4">VKU SURVEY</text>
</svg>
